<svg id="delete_black_24dp_2_" data-name="delete_black_24dp (2)" xmlns="http://www.w3.org/2000/svg" width="36.066" height="36.066" viewBox="0 0 36.066 36.066">
  <path id="Path_598" data-name="Path 598" d="M0,0H36.066V36.066H0Z" fill="none"/>
  <path id="Path_599" data-name="Path 599" d="M6.5,27.044a3.014,3.014,0,0,0,3.005,3.005H21.53a3.014,3.014,0,0,0,3.005-3.005V12.016A3.014,3.014,0,0,0,21.53,9.011H9.508A3.014,3.014,0,0,0,6.5,12.016ZM24.536,4.5H20.779L19.712,3.436A1.516,1.516,0,0,0,18.66,3H12.378a1.516,1.516,0,0,0-1.052.436L10.26,4.5H6.5a1.5,1.5,0,1,0,0,3.005H24.536a1.5,1.5,0,0,0,0-3.005Z" transform="translate(2.514 1.508)" fill="#f66"/>
</svg>
