<svg id="file_download_black_24dp" xmlns="http://www.w3.org/2000/svg" width="35" height="35" viewBox="0 0 35 35">
  <g id="Group_1018" data-name="Group 1018">
    <rect id="Rectangle_261" data-name="Rectangle 261" width="35" height="35" fill="none"/>
  </g>
  <g id="Group_1019" data-name="Group 1019" transform="translate(7.36 4.483)">
    <path id="Path_600" data-name="Path 600" d="M21.676,11.633H19.388V4.439A1.443,1.443,0,0,0,17.949,3H12.194a1.443,1.443,0,0,0-1.439,1.439v7.194H8.467a1.443,1.443,0,0,0-1.022,2.46l6.6,6.6a1.433,1.433,0,0,0,2.029,0l6.6-6.6A1.439,1.439,0,0,0,21.676,11.633ZM5,26.021A1.443,1.443,0,0,0,6.439,27.46H23.7a1.439,1.439,0,1,0,0-2.878H6.439A1.443,1.443,0,0,0,5,26.021Z" transform="translate(-5 -3)"/>
  </g>
</svg>
