<svg xmlns="http://www.w3.org/2000/svg" width="22.374" height="22.373" viewBox="0 0 22.374 22.373">
  <path id="insta" d="M6.281,21.31a7.863,7.863,0,0,1-2.595-.5A5.462,5.462,0,0,1,.561,17.687a7.86,7.86,0,0,1-.5-2.594C.013,13.954,0,13.589,0,10.688S.013,7.421.064,6.28a7.865,7.865,0,0,1,.5-2.594A5.245,5.245,0,0,1,1.794,1.794,5.233,5.233,0,0,1,3.686.561a7.866,7.866,0,0,1,2.595-.5C7.421.012,7.785,0,10.688,0s3.266.012,4.406.064a7.86,7.86,0,0,1,2.594.5A5.236,5.236,0,0,1,19.58,1.794a5.245,5.245,0,0,1,1.233,1.893,7.865,7.865,0,0,1,.5,2.594c.051,1.14.064,1.5.064,4.407s-.013,3.266-.064,4.406a7.86,7.86,0,0,1-.5,2.594,5.461,5.461,0,0,1-3.127,3.126,7.857,7.857,0,0,1-2.594.5c-1.139.051-1.5.063-4.406.063S7.421,21.361,6.281,21.31ZM6.368,1.988a5.909,5.909,0,0,0-1.984.367,3.323,3.323,0,0,0-1.229.8,3.308,3.308,0,0,0-.8,1.229,5.951,5.951,0,0,0-.369,1.984c-.05,1.127-.061,1.464-.061,4.319s.011,3.191.061,4.317a5.957,5.957,0,0,0,.369,1.985,3.3,3.3,0,0,0,.8,1.229,3.312,3.312,0,0,0,1.229.8,5.9,5.9,0,0,0,1.984.368c1.127.051,1.464.062,4.319.062s3.191-.011,4.318-.062a5.91,5.91,0,0,0,1.984-.368,3.538,3.538,0,0,0,2.028-2.028A5.934,5.934,0,0,0,19.387,15c.05-1.127.062-1.464.062-4.317s-.012-3.192-.062-4.319a5.927,5.927,0,0,0-.369-1.984,3.308,3.308,0,0,0-.8-1.229,3.32,3.32,0,0,0-1.229-.8,5.916,5.916,0,0,0-1.984-.367c-1.128-.052-1.465-.063-4.318-.063S7.5,1.936,6.368,1.988ZM5.2,10.688a5.488,5.488,0,1,1,5.488,5.487A5.488,5.488,0,0,1,5.2,10.688Zm1.925,0a3.563,3.563,0,1,0,3.563-3.563A3.562,3.562,0,0,0,7.124,10.688Zm7.985-5.706a1.282,1.282,0,1,1,1.283,1.282A1.282,1.282,0,0,1,15.109,4.982Z" transform="translate(0.5 0.5)" fill="#4362c7" stroke="rgba(0,0,0,0)" stroke-miterlimit="10" stroke-width="1"/>
</svg>
