<svg xmlns="http://www.w3.org/2000/svg" width="20.711" height="19.792" viewBox="0 0 20.711 19.792">
  <path id="lin" d="M105.363,211.835v7.659h-4.44v-7.145c0-1.794-.641-3.019-2.249-3.019a2.428,2.428,0,0,0-2.277,1.623,3.028,3.028,0,0,0-.148,1.083v7.458h-4.44s.059-12.1,0-13.354H96.25v1.892c-.009.015-.022.03-.029.044h.029v-.044a4.409,4.409,0,0,1,4-2.206c2.921,0,5.111,1.909,5.111,6.01ZM87.164,199.7a2.314,2.314,0,1,0-.058,4.615h.029a2.315,2.315,0,1,0,.029-4.615Zm-2.248,19.792h4.439V206.14H84.916Z" transform="translate(-84.652 -199.702)" fill="#4362c7"/>
</svg>
