<svg xmlns="http://www.w3.org/2000/svg" width="250" height="85" viewBox="0 0 250 85">
  <g id="rating" transform="translate(-1452 -432)">
    <rect id="Rectangle_2" data-name="Rectangle 2" width="250" height="85" rx="15" transform="translate(1452 432)" fill="#4362c7"/>
    <g id="Group_225" data-name="Group 225" transform="translate(1497 462.307)">
      <path id="Path_535" data-name="Path 535" d="M-21.888-15.88l-7.508-.651-2.932-6.9a1.552,1.552,0,0,0-2.854,0l-2.932,6.918-7.492.636a1.548,1.548,0,0,0-.884,2.714L-40.8-8.233-42.5-.912A1.547,1.547,0,0,0-40.191.764l6.437-3.878L-27.317.779A1.547,1.547,0,0,0-25.005-.9l-1.706-7.337,5.693-4.933A1.544,1.544,0,0,0-21.888-15.88Z" transform="translate(47.027 24.377)" fill="#ffc93d"/>
      <path id="Path_536" data-name="Path 536" d="M-.313-15.88l-7.508-.651-2.932-6.9a1.552,1.552,0,0,0-2.854,0l-2.932,6.918-7.492.636a1.548,1.548,0,0,0-.884,2.714l5.693,4.933L-20.927-.912A1.547,1.547,0,0,0-18.616.764l6.437-3.878L-5.742.779A1.547,1.547,0,0,0-3.43-.9L-5.137-8.233.556-13.166A1.544,1.544,0,0,0-.313-15.88Z" transform="translate(58.918 24.377)" fill="#ffc93d"/>
      <path id="Path_537" data-name="Path 537" d="M21.261-15.88l-7.508-.651-2.932-6.9a1.552,1.552,0,0,0-2.854,0L5.036-16.516l-7.492.636a1.548,1.548,0,0,0-.884,2.714L2.353-8.233.647-.912A1.547,1.547,0,0,0,2.958.764L9.4-3.114,15.832.779A1.547,1.547,0,0,0,18.144-.9L16.437-8.233l5.693-4.933A1.544,1.544,0,0,0,21.261-15.88Z" transform="translate(70.808 24.377)" fill="#ffc93d"/>
      <path id="Path_538" data-name="Path 538" d="M42.836-15.88l-7.508-.651-2.932-6.9a1.552,1.552,0,0,0-2.854,0l-2.932,6.918-7.492.636a1.548,1.548,0,0,0-.884,2.714l5.693,4.933L22.222-.912A1.547,1.547,0,0,0,24.533.764L30.97-3.114,37.407.779A1.547,1.547,0,0,0,39.719-.9L38.012-8.233,43.7-13.166A1.544,1.544,0,0,0,42.836-15.88Z" transform="translate(82.699 24.377)" fill="#ffc93d"/>
      <path id="Path_539" data-name="Path 539" d="M64.41-15.88,56.9-16.532l-2.932-6.9a1.552,1.552,0,0,0-2.854,0l-2.932,6.918-7.492.636a1.548,1.548,0,0,0-.884,2.714L45.5-8.233,43.8-.912A1.547,1.547,0,0,0,46.107.764l6.437-3.878L58.981.779A1.547,1.547,0,0,0,61.293-.9L59.586-8.233l5.693-4.933A1.544,1.544,0,0,0,64.41-15.88ZM52.544-6.015,46.712-2.494l1.551-6.639L43.113-13.6l6.794-.589,2.637-6.251L55.2-14.174l6.794.589-5.15,4.467,1.551,6.639Z" transform="translate(94.589 24.377)" fill="#ffc93d"/>
    </g>
  </g>
</svg>
