<svg xmlns="http://www.w3.org/2000/svg" width="119.619" height="18.93" viewBox="0 0 119.619 18.93">
  <g id="stars" transform="translate(-8237 3056)">
    <path id="Path_535" data-name="Path 535" d="M-28.281-18.041l-5.6-.486-2.186-5.147a1.157,1.157,0,0,0-2.128,0l-2.186,5.159-5.587.474a1.154,1.154,0,0,0-.659,2.024l4.245,3.678-1.272,5.46a1.154,1.154,0,0,0,1.723,1.249l4.8-2.892,4.8,2.9a1.154,1.154,0,0,0,1.723-1.249l-1.272-5.471,4.245-3.678A1.152,1.152,0,0,0-28.281-18.041Z" transform="translate(8284.027 -3031.624)" fill="#ffc93d"/>
    <path id="Path_536" data-name="Path 536" d="M-6.706-18.041l-5.6-.486-2.186-5.147a1.157,1.157,0,0,0-2.128,0L-18.8-18.515l-5.587.474a1.154,1.154,0,0,0-.659,2.024l4.245,3.678-1.272,5.46a1.154,1.154,0,0,0,1.723,1.249l4.8-2.892,4.8,2.9A1.154,1.154,0,0,0-9.031-6.867L-10.3-12.338l4.245-3.678A1.152,1.152,0,0,0-6.706-18.041Z" transform="translate(8287.407 -3031.624)" fill="#ffc93d"/>
    <path id="Path_537" data-name="Path 537" d="M14.868-18.041l-5.6-.486L7.084-23.674a1.157,1.157,0,0,0-2.128,0L2.769-18.515l-5.587.474a1.154,1.154,0,0,0-.659,2.024L.768-12.338-.5-6.879A1.154,1.154,0,0,0,1.22-5.629l4.8-2.892,4.8,2.9a1.154,1.154,0,0,0,1.723-1.249l-1.272-5.471,4.245-3.678A1.152,1.152,0,0,0,14.868-18.041Z" transform="translate(8290.788 -3031.624)" fill="#ffc93d"/>
    <path id="Path_538" data-name="Path 538" d="M36.443-18.041l-5.6-.486-2.186-5.147a1.157,1.157,0,0,0-2.128,0l-2.186,5.159-5.587.474a1.154,1.154,0,0,0-.659,2.024l4.245,3.678-1.272,5.46a1.154,1.154,0,0,0,1.723,1.249l4.8-2.892,4.8,2.9a1.154,1.154,0,0,0,1.723-1.249l-1.272-5.471,4.245-3.678A1.152,1.152,0,0,0,36.443-18.041Z" transform="translate(8294.168 -3031.624)" fill="#ffc93d"/>
    <path id="Path_539" data-name="Path 539" d="M58.017-18.041l-5.6-.486-2.186-5.147a1.157,1.157,0,0,0-2.128,0l-2.186,5.159-5.587.474a1.154,1.154,0,0,0-.659,2.024l4.245,3.678-1.272,5.46a1.154,1.154,0,0,0,1.723,1.249l4.8-2.892,4.8,2.9a1.154,1.154,0,0,0,1.723-1.249L54.42-12.338l4.245-3.678A1.152,1.152,0,0,0,58.017-18.041Zm-8.849,7.357L44.82-8.059l1.157-4.951-3.84-3.331,5.066-.44,1.966-4.661,1.978,4.673,5.066.44L52.373-13l1.157,4.951Z" transform="translate(8297.549 -3031.624)" fill="#ffc93d"/>
  </g>
</svg>
