<svg xmlns="http://www.w3.org/2000/svg" width="21.764" height="17.688" viewBox="0 0 21.764 17.688">
  <path id="twt" d="M180.177,311.292a12.7,12.7,0,0,0,19.536-11.277,9.045,9.045,0,0,0,2.228-2.311,8.9,8.9,0,0,1-2.564.7,4.47,4.47,0,0,0,1.962-2.47,8.935,8.935,0,0,1-2.835,1.084,4.468,4.468,0,0,0-7.609,4.073,12.671,12.671,0,0,1-9.2-4.666,4.47,4.47,0,0,0,1.382,5.962,4.448,4.448,0,0,1-2.023-.559,4.47,4.47,0,0,0,3.581,4.435,4.469,4.469,0,0,1-2.016.076,4.466,4.466,0,0,0,4.17,3.1A8.973,8.973,0,0,1,180.177,311.292Z" transform="translate(-180.177 -295.611)" fill="#4362c7"/>
</svg>
